<?xml version="1.0" encoding="utf-8"?>
<?xml-stylesheet type="text/xsl" href="rss1.xsl"?>
<rss version="2.0" xmlns:atom="http://www.w3.org/2005/Atom" xmlns:content="http://purl.org/rss/1.0/modules/content/" xmlns:dc="http://purl.org/dc/elements/1.1/" xmlns:media="http://search.yahoo.com/mrss/">
<channel>
 <title>Getty</title>
 <link>http://www.gettyimg.com/</link>
 <atom:link href="http://www.gettyimg.com/" rel="self" type="application/rss+xml" />

 
                <item>
                <title><![CDATA[【Music Videos】Linkin Park - Crawling [4K Remaster | VP9 | PCM 24-bit 48 kHz | DD+ Dolby Atmos]]]></title>
                <link><![CDATA[https://sharemania.us/threads/linkin-park-crawling-4k-remaster-vp9-pcm-24-bit-48-khz-dd-dolby-atmos.248853/]]></link>
                <description><![CDATA[<article>
<blockquote class="messageText SelectQuoteContainer ugc baseHtml">
<img src="https://images2.imgbox.com/22/fb/3aAJQaRx_o.jpg" class="bbCodeImage LbImage" alt="[​IMG]" data-url="https://images2.imgbox.com/22/fb/3aAJQaRx_o.jpg" style=""> <br>
<br>
<b>Genre: <span style="color: #0059b3">Rock</span><br>
Style: <span style="color: #0059b3">Nu Metal</span><br>
Year: <span style="color: #0059b3">2001</span><br>
Video Source: <span style="color: #0059b3">YouTube, Remaster, 2160p</span><br>
Audio Source: <span style="color: #0059b3">Qobuz &amp; Tidal, thanks SonMaxime</span></b><br>
<br>
"<b>Crawling</b>" is a song by American rock band Linkin Park. It is the second single from their debut album, <i>Hybrid Theory</i>. Released on April 2, 2001, it won a Grammy Award for Best Hard Rock Performance in 2002.<br>
<br>
"Crawling" is one of the few songs on <i>Hybrid Theory</i> that do not prominently feature Mike Shinoda's rap sung lyrics. The intro to "Crawling" has been remixed in live versions over the years. Since 2008's Projekt Revolution, Mike Shinoda has rapped the first verse of "Hands Held High" over the intro to <i>Reanimation</i> version of "Crawling", titled "Krwlng" (featuring Staind frontman Aaron Lewis). In 2009, Shinoda rapped two verses of "Hands Held High" over the intro of "Crawling", which first verse started with an a cappella or a bassline before the <i>Reanimation</i> intro started, in which Shinoda raps the second verse. Singer Chester Bennington remarked that "Crawling" was the most difficult Linkin Park song to sing live, stating "Crawling has caused me the most trouble live more than any other song." Bennington also commented on the meaning of "Crawling" by stating it was inspired by his own battles with substance abuse. "Crawling is about feeling like I had no control over myself in terms of drugs and alcohol, hence the line "These wounds they will not heal..."<br>
<br>
The music video for Crawling was directed by the Brothers Strause. It portrays a young woman's inner conflict dealing with an abusive relationship. The woman (portrayed by Katelyn Rosaasen) closes off to the rest of the world, represented with the special effects of crystals forming around her. By the end, the crystals recede. This video was supposed to have a "darker" ending to it when the first synopsis was written, being a take on <i>Species</i> where a psycho fan kills the band, but Warner Bros. rejected the idea, and the final ending was written in its place.<br>
"Crawling" was the first music video with Dave Farrell in the band. Phoenix returned to Linkin Park just before they began work on this video. The video was nominated for Best Rock video on MTV's Video Music Awards. It lost to Limp Bizkit's "Rollin".<br>
<br>
<b>Release Info</b><br>
The video track is downloaded from YouTube (no better source available) and left as is (2160p, VP9).<br>
The PCM track is downloaded from Qobuz (Hi-Res, 24-bit 48 kHz), synced with Adobe Audition.<br>
The Atmos track is downloaded from Tidal &amp; synced by muxing (delay, no quality loss).<br>
The timed lyrics are synced and edited. Enable the subtitles to see the lyrics.<br>
<br>
<div class="ToggleTriggerAnchor bbCodeSpoilerContainer">
<button type="button" class="button bbCodeSpoilerButton ToggleTrigger Tooltip JsOnly" data-target="> .SpoilerTarget"><span>Spoiler: <span class="SpoilerTitle">Media Info</span></span></button>
<div class="SpoilerTarget bbCodeSpoilerText">
<div class="bbCodeBlock bbCodeCode">
<div class="type">Code:</div>
<pre>General
Unique ID                      : 51130581574554226375957189789682727638 (0x2677644DD89850B3D2278B996B677AD6)
Complete name                  : Linkin Park - Crawling.mkv
Format                         : Matroska
Format version                 : Version 4 / Version 2
File size                      : 408 MiB
Duration                       : 3 min 36 s
Overall bit rate               : 15.8 Mb/s
Frame rate                     : 23.976 FPS
Encoded date                   : 2024-06-08 22:52:14 UTC
Writing application            : mkvmerge v84.0 ('Sleeper') 64-bit
Writing library                : libebml v1.4.5 + libmatroska v1.7.1

Video
ID                             : 1
Format                         : VP9
Format profile                 : 0
Codec ID                       : V_VP9
Duration                       : 3 min 36 s
Bit rate                       : 12.7 Mb/s
Width                          : 3 840 pixels
Height                         : 1 600 pixels
Display aspect ratio           : 2.40:1
Frame rate mode                : Constant
Frame rate                     : 23.976 (24000/1001) FPS
Color space                    : YUV
Chroma subsampling             : 4:2:0 (Type 1)
Bit depth                      : 8 bits
Bits/(Pixel*Frame)             : 0.086
Stream size                    : 329 MiB (81%)
Language                       : English
Default                        : Yes
Forced                         : No
Color range                    : Limited
Color primaries                : BT.709
Transfer characteristics       : BT.709
Matrix coefficients            : BT.709

Audio #1
ID                             : 2
Format                         : PCM
Format settings                : Little / Signed
Codec ID                       : A_PCM/INT/LIT
Duration                       : 3 min 36 s
Bit rate mode                  : Constant
Bit rate                       : 2 304 kb/s
Channel(s)                     : 2 channels
Sampling rate                  : 48.0 kHz
Frame rate                     : 25.003 FPS (1920 SPF)
Bit depth                      : 24 bits
Stream size                    : 59.5 MiB (15%)
Title                          : Lossless 24-bit 48 kHz
Language                       : English
Default                        : Yes
Forced                         : No

Audio #2
ID                             : 3
Format                         : E-AC-3 JOC
Format/Info                    : Enhanced AC-3 with Joint Object Coding
Commercial name                : Dolby Digital Plus with Dolby Atmos
Codec ID                       : A_EAC3
Duration                       : 3 min 30 s
Bit rate mode                  : Constant
Bit rate                       : 768 kb/s
Channel(s)                     : 6 channels
Channel layout                 : L R C LFE Ls Rs
Sampling rate                  : 48.0 kHz
Frame rate                     : 31.250 FPS (1536 SPF)
Compression mode               : Lossy
Delay relative to video        : 3 s 55 ms
Stream size                    : 19.2 MiB (5%)
Title                          : Dolby Atmos
Language                       : English
Service kind                   : Complete Main
Default                        : No
Forced                         : No
Complexity index               : 16
Number of dynamic objects      : 15
Bed channel count              : 1 channel
Bed channel configuration      : LFE
Dialog Normalization           : -20 dB
compr                          : -0.28 dB
dmixmod                        : Lo/Ro
ltrtcmixlev                    : -3.0 dB
ltrtsurmixlev                  : -3.0 dB
lorocmixlev                    : -3.0 dB
lorosurmixlev                  : -3.0 dB
dialnorm_Average               : -20 dB
dialnorm_Minimum               : -20 dB
dialnorm_Maximum               : -20 dB

Text
ID                             : 4
Format                         : UTF-8
Codec ID                       : S_TEXT/UTF8
Codec ID/Info                  : UTF-8 Plain Text
Duration                       : 2 min 58 s
Bit rate                       : 54 b/s
Frame rate                     : 0.190 FPS
Count of elements              : 34
Stream size                    : 1.18 KiB (0%)
Title                          : Lyrics
Language                       : English
Default                        : No
Forced                         : No
</pre>
</div></div>
</div><br>
<b>Note to the peeps @ RuTracker: Give credit if you post the work of someone else!</b><br>
- Hurby4 aka ADHDerby<br>
<br>
<div class="bbCodeBlock bbCodeVfcHH HiddenContent">
<div class="attribution type">Hidden Content:</div>
<blockquote>You must reply before you can see the hidden data contained here.</blockquote>
</div>
<div class="messageTextEndMarker">&nbsp;</div>
</blockquote>
</article>]]></description>
                <author><![CDATA[ADHDerby]]></author>
                </item>

                
                <item>
                <title><![CDATA[【Singles (lossy)】MP3 - Camila Cabello - June Gloom (A Cappella) / Chanel No.5 (A Capella)]]></title>
                <link><![CDATA[https://sharemania.us/threads/camila-cabello-june-gloom-a-cappella-chanel-no-5-a-capella.248854/]]></link>
                <description><![CDATA[<article>
<blockquote class="messageText SelectQuoteContainer ugc baseHtml">
Here are the Original Files in lossy format for June Gloom (A Cappella) / Chanel No.5 (A Capella).<br>
<br>
Enjoy &amp; don't forget to put a like on it <img src="styles/default/xenforo/smilies/big_smile-48.png" class="mceSmilie" alt=":)" title="Smile    :)"><br>
<br>
June Gloom (A Cappella) :
<div class="bbCodeBlock bbCodeVfcHH HiddenContent">
<div class="attribution type">Hidden Content:</div>
<blockquote>You must either reply or click 'Like' to see the hidden information contained here.</blockquote>
</div>Chanel No.5 (A Capella) :
<div class="bbCodeBlock bbCodeVfcHH HiddenContent">
<div class="attribution type">Hidden Content:</div>
<blockquote>You must either reply or click 'Like' to see the hidden information contained here.</blockquote>
</div>[/HIDE]
<div class="messageTextEndMarker">&nbsp;</div>
</blockquote>
</article>]]></description>
                <author><![CDATA[Marin]]></author>
                </item>

                </channel></rss>